# xmcd CD database file
#
# Track frame offsets:
#	150
#	17502
#	33737
#	50632
#	68310
#	83202
#	103147
#	123140
#	145522
#	160177
#	177280
#	195825
#	210475
#
# Disc length: 2987 seconds
#
# Revision: 0
# Processed by: cddbd v1.4PL0 Copyright (c) Steve Scherf et al.
# Submitted via: NeoAudio 9.9.9
#
DISCID=9f0ba90d
DTITLE=Walter Jr. - Louisiana Soul
DYEAR=1998
DGENRE=Country
TTITLE0=Bad Whiskey
TTITLE1=HWY 90
TTITLE2=What I Want
TTITLE3=The Whole Night
TTITLE4=Love Starved Louann
TTITLE5=Some Kind Of Way
TTITLE6=Hole In My Sole
TTITLE7=Mama's Kitchen
TTITLE8=She Ain't My Neighbor
TTITLE9=Ain't What You Thank
TTITLE10=Be By Me
TTITLE11=Purple - Gold - Green
TTITLE12=See You Later, Alligator
EXTD=YEAR: 1998
EXTT0=
EXTT1=
EXTT2=
EXTT3=
EXTT4=
EXTT5=
EXTT6=
EXTT7=
EXTT8=
EXTT9=
EXTT10=
EXTT11=
EXTT12=
PLAYORDER=
